<svg width="512" height="512" viewBox="0 0 512 512" fill="none" xmlns="http://www.w3.org/2000/svg" role="img" aria-label="Eric Carlisle">
<g clip-path="url(#clip0_1_3)">
<path d="M0 128C0 57.3076 57.3076 0 128 0H384C454.692 0 512 57.3076 512 128V384C512 454.692 454.692 512 384 512H128C57.3076 512 0 454.692 0 384V128Z" fill="#05050B"/>
<path d="M0 128C0 57.3076 57.3076 0 128 0H384C454.692 0 512 57.3076 512 128V384C512 454.692 454.692 512 384 512H128C57.3076 512 0 454.692 0 384V128Z" fill="#05050B"/>
<path d="M0 128C0 57.3076 57.3076 0 128 0H384C454.692 0 512 57.3076 512 128V384C512 454.692 454.692 512 384 512H128C57.3076 512 0 454.692 0 384V128Z" fill="#05050B"/>
<path d="M144.496 369.608C122.992 369.608 104.176 364.744 88.048 355.016C71.92 345.288 59.376 332.104 50.416 315.464C41.456 298.824 36.976 280.392 36.976 260.168C36.976 239.176 41.456 220.616 50.416 204.488C59.632 188.104 72.048 175.176 87.664 165.704C103.536 156.232 121.2 151.496 140.656 151.496C157.04 151.496 171.376 154.184 183.664 159.56C196.208 164.936 206.832 172.36 215.536 181.832C224.24 191.304 230.896 202.184 235.504 214.472C240.112 226.504 242.416 239.56 242.416 253.64C242.416 257.224 242.16 260.936 241.648 264.776C241.392 268.616 240.752 271.944 239.728 274.76H78.448V236.36H211.312L187.504 254.408C189.808 242.632 189.168 232.136 185.584 222.92C182.256 213.704 176.624 206.408 168.688 201.032C161.008 195.656 151.664 192.968 140.656 192.968C130.16 192.968 120.816 195.656 112.624 201.032C104.432 206.152 98.16 213.832 93.808 224.072C89.712 234.056 88.176 246.216 89.2 260.552C88.176 273.352 89.84 284.744 94.192 294.728C98.8 304.456 105.456 312.008 114.16 317.384C123.12 322.76 133.36 325.448 144.88 325.448C156.4 325.448 166.128 323.016 174.064 318.152C182.256 313.288 188.656 306.76 193.264 298.568L233.968 318.536C229.872 328.52 223.472 337.352 214.768 345.032C206.064 352.712 195.696 358.728 183.664 363.08C171.888 367.432 158.832 369.608 144.496 369.608ZM381.157 369.608C360.421 369.608 341.733 364.872 325.093 355.4C308.709 345.672 295.781 332.616 286.309 316.232C276.837 299.592 272.101 280.904 272.101 260.168C272.101 239.432 276.837 220.872 286.309 204.488C295.781 188.104 308.709 175.176 325.093 165.704C341.733 156.232 360.421 151.496 381.157 151.496C396.005 151.496 409.829 154.184 422.629 159.56C435.429 164.68 446.437 171.848 455.653 181.064C465.125 190.024 471.909 200.776 476.005 213.32L431.845 232.52C428.005 222.024 421.477 213.576 412.261 207.176C403.301 200.776 392.933 197.576 381.157 197.576C370.149 197.576 360.293 200.264 351.589 205.64C343.141 211.016 336.485 218.44 331.621 227.912C326.757 237.384 324.325 248.264 324.325 260.552C324.325 272.84 326.757 283.72 331.621 293.192C336.485 302.664 343.141 310.088 351.589 315.464C360.293 320.84 370.149 323.528 381.157 323.528C393.189 323.528 403.685 320.328 412.645 313.928C421.605 307.528 428.005 298.952 431.845 288.2L476.005 308.168C471.909 319.944 465.253 330.568 456.037 340.04C446.821 349.256 435.813 356.552 423.013 361.928C410.213 367.048 396.261 369.608 381.157 369.608Z" fill="#C37A00"/>
</g>
<defs>
<clipPath id="clip0_1_3">
<rect width="512" height="512" fill="white"/>
</clipPath>
</defs>
</svg>
